<mxfile host="app.diagrams.net" modified="2023-03-17T03:16:44.385Z" agent="5.0 (Macintosh; Intel Mac OS X 10_15_7) AppleWebKit/537.36 (KHTML, like Gecko) Chrome/111.0.0.0 Safari/537.36" etag="qi-dQmEbU15WC_qDl4Kf" version="21.0.6" type="github">
  <diagram name="第 1 页" id="c6IFd47PqzObT7H8i9HD">
    <mxGraphModel dx="1023" dy="1662" grid="1" gridSize="10" guides="1" tooltips="1" connect="1" arrows="1" fold="1" page="1" pageScale="1" pageWidth="827" pageHeight="1169" math="0" shadow="0">
      <root>
        <mxCell id="0" />
        <mxCell id="1" parent="0" />
        <mxCell id="bj8zJNLdQVlicTig-U32-1" value="mathjax" style="shape=folder;fontStyle=1;spacingTop=10;tabWidth=40;tabHeight=14;tabPosition=left;html=1;whiteSpace=wrap;" vertex="1" parent="1">
          <mxGeometry x="80" y="150" width="400" height="220" as="geometry" />
        </mxCell>
        <mxCell id="bj8zJNLdQVlicTig-U32-3" value="util" style="shape=module;align=left;spacingLeft=20;align=center;verticalAlign=top;whiteSpace=wrap;html=1;" vertex="1" parent="1">
          <mxGeometry x="70" y="-40" width="410" height="160" as="geometry" />
        </mxCell>
        <mxCell id="bj8zJNLdQVlicTig-U32-4" value="ui" style="shape=module;align=left;spacingLeft=20;align=center;verticalAlign=top;whiteSpace=wrap;html=1;" vertex="1" parent="1">
          <mxGeometry x="510" y="-40" width="410" height="160" as="geometry" />
        </mxCell>
        <mxCell id="bj8zJNLdQVlicTig-U32-5" value="output" style="shape=module;align=left;spacingLeft=20;align=center;verticalAlign=top;whiteSpace=wrap;html=1;" vertex="1" parent="1">
          <mxGeometry x="950" y="-40" width="410" height="160" as="geometry" />
        </mxCell>
        <mxCell id="bj8zJNLdQVlicTig-U32-6" value="input" style="shape=module;align=left;spacingLeft=20;align=center;verticalAlign=top;whiteSpace=wrap;html=1;" vertex="1" parent="1">
          <mxGeometry x="510" y="160" width="410" height="160" as="geometry" />
        </mxCell>
        <mxCell id="bj8zJNLdQVlicTig-U32-7" value="handlers" style="shape=module;align=left;spacingLeft=20;align=center;verticalAlign=top;whiteSpace=wrap;html=1;" vertex="1" parent="1">
          <mxGeometry x="950" y="160" width="410" height="160" as="geometry" />
        </mxCell>
        <mxCell id="bj8zJNLdQVlicTig-U32-8" value="core" style="shape=module;align=left;spacingLeft=20;align=center;verticalAlign=top;whiteSpace=wrap;html=1;" vertex="1" parent="1">
          <mxGeometry x="510" y="360" width="410" height="160" as="geometry" />
        </mxCell>
        <mxCell id="bj8zJNLdQVlicTig-U32-9" value="components" style="shape=module;align=left;spacingLeft=20;align=center;verticalAlign=top;whiteSpace=wrap;html=1;" vertex="1" parent="1">
          <mxGeometry x="950" y="360" width="410" height="160" as="geometry" />
        </mxCell>
        <mxCell id="bj8zJNLdQVlicTig-U32-10" value="adaptors" style="shape=module;align=left;spacingLeft=20;align=center;verticalAlign=top;whiteSpace=wrap;html=1;" vertex="1" parent="1">
          <mxGeometry x="510" y="560" width="410" height="160" as="geometry" />
        </mxCell>
        <mxCell id="bj8zJNLdQVlicTig-U32-11" value="a11y" style="shape=module;align=left;spacingLeft=20;align=center;verticalAlign=top;whiteSpace=wrap;html=1;" vertex="1" parent="1">
          <mxGeometry x="950" y="560" width="410" height="160" as="geometry" />
        </mxCell>
        <mxCell id="bj8zJNLdQVlicTig-U32-21" value="AsyncLoad" style="html=1;whiteSpace=wrap;" vertex="1" parent="1">
          <mxGeometry x="100" y="-10" width="110" height="50" as="geometry" />
        </mxCell>
      </root>
    </mxGraphModel>
  </diagram>
</mxfile>
